<?xml version="1.0" standalone="no"?>
<!DOCTYPE svg PUBLIC "-//W3C//DTD SVG 20010904//EN"
 "http://www.w3.org/TR/2001/REC-SVG-20010904/DTD/svg10.dtd">
<svg version="1.0" xmlns="http://www.w3.org/2000/svg"
 width="1024.000000pt" height="1024.000000pt" viewBox="0 0 1024.000000 1024.000000"
 preserveAspectRatio="xMidYMid meet">
<metadata>
Created by potrace 1.14, written by Peter Selinger 2001-2017
</metadata>
<g transform="translate(0.000000,1024.000000) scale(0.100000,-0.100000)"
fill="#000000" stroke="none">
<path d="M4730 10229 c-982 -78 -1890 -419 -2680 -1008 -373 -278 -751 -657
-1034 -1036 -508 -679 -838 -1470 -961 -2300 -43 -291 -50 -395 -50 -765 0
-372 7 -477 51 -769 277 -1849 1555 -3406 3319 -4047 400 -146 789 -233 1265
-286 154 -17 806 -17 960 0 491 54 886 145 1297 298 929 346 1727 941 2318
1729 601 801 945 1726 1016 2730 15 212 7 687 -15 880 -135 1196 -637 2247
-1476 3085 -879 880 -2001 1394 -3249 1490 -155 12 -607 11 -761 -1z m3115
-3053 c182 -55 322 -172 406 -341 54 -108 68 -196 69 -417 l0 -178 -3200 0
-3200 0 0 178 c1 221 15 309 69 417 69 139 158 227 296 296 49 24 111 46 155
54 62 11 529 13 2710 11 2515 -1 2638 -2 2695 -20z m472 -2908 c-3 -939 -4
-1017 -21 -1073 -51 -172 -183 -330 -337 -403 -153 -73 83 -67 -2839 -67
-2922 0 -2686 -6 -2839 67 -154 73 -286 231 -337 403 -17 56 -18 134 -21 1073
l-4 1012 3201 0 3201 0 -4 -1012z"/>
<path d="M4699 3987 c-84 -32 -148 -88 -191 -170 -19 -35 -23 -58 -23 -137 0
-86 3 -100 29 -148 34 -60 85 -111 148 -144 36 -19 58 -23 138 -23 87 0 100 3
149 30 115 64 176 174 169 305 -7 118 -65 208 -170 265 -43 24 -67 29 -133 32
-50 2 -93 -2 -116 -10z"/>
<path d="M5979 3987 c-84 -32 -148 -88 -191 -170 -19 -35 -23 -58 -23 -137 0
-86 3 -100 29 -148 34 -60 85 -111 148 -144 36 -19 58 -23 138 -23 87 0 100 3
149 30 115 64 176 174 169 305 -7 118 -65 208 -170 265 -43 24 -67 29 -133 32
-50 2 -93 -2 -116 -10z"/>
<path d="M7259 3987 c-84 -32 -148 -88 -191 -170 -19 -35 -23 -58 -23 -137 0
-86 3 -100 29 -148 34 -60 85 -111 148 -144 36 -19 58 -23 138 -23 87 0 100 3
149 30 115 64 176 174 169 305 -7 118 -65 208 -170 265 -43 24 -67 29 -133 32
-50 2 -93 -2 -116 -10z"/>
</g>
</svg>
